<svg data-logo="logo" xmlns="http://www.w3.org/2000/svg" viewBox="0 0 149 30">
        <g style="opacity: 1;" id="logogram" transform="translate(0, 15) rotate(0)"></g>
        <g style="opacity: 1;" id="logotype" transform="translate(0, 1)"><path fill="#000000" d="M4.67 22.30L4.67 22.30L4.44 22.76Q4.44 23.26 5.84 23.71Q7.23 24.16 8.90 24.16Q10.56 24.16 12.56 23.67Q14.56 23.17 16.04 22.45Q17.52 21.74 18.48 20.95Q19.45 20.16 19.45 19.58L19.45 19.58Q19.45 18.85 17.74 18.22Q16.03 17.58 12.77 16.82Q9.52 16.06 8.01 14.90Q6.49 13.74 6.49 12.07Q6.49 10.41 7.69 8.88Q8.89 7.36 10.81 6.18Q12.73 5.01 15.00 4.08L15.00 4.08Q19.70 2.19 23.72 2.19L23.72 2.19Q25.26 2.19 26.44 2.46L26.44 2.46Q28.69 2.99 28.69 3.86Q28.69 4.73 28.54 5.05Q28.39 5.36 28.29 5.47Q28.20 5.57 28.05 5.67Q27.91 5.77 27.84 5.83L27.84 5.83Q27.09 6.46 23.72 6.61L23.72 6.61Q22.56 6.66 22.46 6.73Q22.35 6.80 22.28 6.80Q22.20 6.80 22.10 6.66Q21.99 6.53 21.99 6.22Q21.99 5.91 22.66 5.09L22.66 5.09Q20.58 5.21 18.21 6.05Q15.84 6.89 14.10 7.94Q12.36 8.99 11.19 10.00Q10.03 11.02 10.03 11.44Q10.03 11.86 10.29 12.13L10.29 12.13Q11.01 12.90 14.27 13.74L14.27 13.74Q17.65 14.61 18.78 15.14Q19.91 15.67 20.65 16.15Q21.40 16.63 21.84 17.12L21.84 17.12Q22.88 18.32 22.88 19.55Q22.88 20.78 22.23 21.86Q21.57 22.93 20.24 23.94Q18.92 24.95 17.12 25.74L17.12 25.74Q13.19 27.50 7.76 27.50L7.76 27.50Q3.79 27.50 2.70 25.39L2.70 25.39Q2.41 24.86 2.41 24.29Q2.41 23.72 2.67 23.26Q2.94 22.80 3.32 22.56L3.32 22.56Q4.05 22.10 4.36 22.10Q4.67 22.10 4.67 22.30ZM55.23 2.51L56.74 2.61L56.96 2.61Q57.06 2.61 57.09 2.63Q57.11 2.65 57.16 2.66Q57.20 2.66 57.23 2.70L57.23 2.70Q57.32 2.77 57.47 2.85L57.47 2.85Q57.68 3.01 57.68 3.21Q57.68 3.42 57.28 4.06Q56.88 4.70 55.22 7.24L55.22 7.24Q51.39 13.11 48.36 18.11L48.36 18.11Q43.13 26.81 43.08 26.86Q43.03 26.91 43.02 26.97L43.02 26.97Q43.00 27.07 42.88 27.07L42.88 27.07L42.64 27.02L42.18 27.14L41.90 27.09L41.61 27.14L41.51 27.14L40.55 27.27Q39.70 27.27 39.70 26.69L39.70 26.69Q39.70 26.45 39.85 26.09L39.85 26.09Q40.38 24.85 45.19 17.02L45.19 17.02Q42.02 17.10 38.95 17.10L38.95 17.10L35.27 17.09Q34.37 18.54 32.80 21.21L32.80 21.21Q29.39 27.02 29.17 27.08Q28.95 27.14 28.81 27.14Q28.68 27.14 28.56 26.97Q28.44 26.81 28.39 26.81Q28.35 26.81 28.22 26.88Q28.08 26.95 27.82 26.95L27.82 26.95L27.43 26.93L27.28 26.83Q27.26 26.83 27.23 26.88Q27.21 26.93 27.10 26.93L27.10 26.93Q26.37 26.93 26.37 26.32L26.37 26.32Q26.37 25.91 26.66 25.24Q26.95 24.57 27.42 23.79Q27.89 23.00 29.85 20.07Q31.80 17.14 31.80 17.12L31.80 17.12Q31.48 17.10 31.05 17.09L31.05 17.09Q30.18 17.09 29.82 17.02L29.82 17.02Q28.85 16.85 28.49 15.41L28.49 15.41Q28.30 14.71 28.32 14.49L28.32 14.49Q28.32 14.03 28.71 14.03L28.71 14.03L29.16 14.15Q29.50 14.17 30.80 14.23Q32.09 14.30 32.66 14.30L32.66 14.30L33.63 14.27Q35.85 10.78 38.95 6.39L38.95 6.39Q36.69 8.24 33.94 8.24L33.94 8.24Q32.64 8.24 31.70 7.61Q30.76 6.99 30.76 6.03Q30.76 5.07 31.48 4.52Q32.20 3.96 32.85 3.96Q33.50 3.96 33.50 4.17L33.50 4.17Q33.50 4.24 33.32 4.32Q33.14 4.41 33.14 4.49L33.14 4.49Q33.14 4.77 33.74 4.98Q34.33 5.19 35.08 5.19Q35.82 5.19 36.91 4.76Q38.01 4.32 39.19 3.64L39.19 3.64Q40.83 2.68 41.78 2.05L41.78 2.05Q42.33 1.78 42.81 1.78Q43.29 1.78 43.50 1.89Q43.72 2.00 43.82 2.11Q43.92 2.22 44.04 2.40Q44.16 2.58 44.27 2.67Q44.38 2.77 44.38 2.89Q44.38 3.01 44.25 3.26Q44.13 3.52 42.95 5.34Q41.77 7.16 39.91 9.99Q38.06 12.82 37.20 14.15L37.20 14.15Q41.77 14.15 47.07 13.98L47.07 13.98Q53.51 3.81 53.87 3.31Q54.23 2.82 54.52 2.66Q54.81 2.51 55.23 2.51L55.23 2.51ZM84.24 3.18L83.36 3.35Q83.18 3.35 83.18 3.09Q83.18 2.83 83.32 2.76Q83.47 2.68 83.82 2.50Q84.17 2.32 84.30 2.26Q84.44 2.20 84.73 2.07Q85.02 1.93 85.20 1.88Q85.38 1.83 85.64 1.74L85.64 1.74Q86.06 1.62 86.71 1.62Q87.35 1.62 88.02 2.07Q88.70 2.51 88.70 3.23L88.70 3.23Q88.70 4.71 87.40 7.17Q86.10 9.62 84.06 12.27Q82.03 14.92 79.50 17.65Q76.97 20.39 74.56 22.54Q72.15 24.69 70.03 26.06Q67.90 27.43 66.75 27.43L66.75 27.43Q64.33 27.43 64.33 25.22L64.33 25.22Q64.33 22.13 67.83 16.28L67.83 16.28Q61.01 24.35 56.41 26.69L56.41 26.69Q55.22 27.31 54.58 27.31Q53.95 27.31 53.04 26.53Q52.12 25.75 52.12 25.00L52.12 25.00Q52.12 20.75 58.04 13.09L58.04 13.09Q60.29 10.17 63.66 6.56L63.66 6.56Q60.72 9.11 59.18 9.11L59.18 9.11Q58.36 9.11 57.97 8.30L57.97 8.30Q57.61 7.72 57.61 7.20Q57.61 6.68 58.29 6.06Q58.98 5.45 59.10 5.45Q59.22 5.45 59.32 5.54Q59.42 5.62 59.42 5.69L59.42 5.69Q59.18 5.95 59.18 6.02Q59.18 6.10 59.39 6.10Q59.59 6.10 62.81 4.14Q66.02 2.19 66.33 2.19L66.33 2.19Q67.21 2.19 68.03 2.67Q68.85 3.16 68.85 3.49Q68.85 3.83 68.51 4.37Q68.17 4.92 64.45 9.73Q60.72 14.54 59.03 17.01Q57.34 19.48 56.55 21.06Q55.76 22.64 55.76 22.98Q55.76 23.33 55.87 23.33L55.87 23.33Q56.58 23.33 61.00 18.99Q65.42 14.66 69.42 10.43Q73.42 6.20 73.77 5.74Q74.12 5.28 74.53 5.08Q74.94 4.89 75.76 4.89L75.76 4.89Q78.05 4.89 78.05 5.76L78.05 5.76Q78.05 6.12 77.05 7.28Q76.05 8.44 75.64 8.97L75.64 8.97Q73.50 11.69 70.88 16.63Q68.26 21.57 68.26 22.95L68.26 22.95Q68.26 23.33 68.50 23.33Q68.75 23.33 69.97 22.36Q71.20 21.39 73.20 19.47Q75.20 17.55 77.74 14.71Q80.29 11.88 82.60 8.41Q84.92 4.95 84.92 4.07Q84.92 3.18 84.24 3.18L84.24 3.18ZM90.87 10.29L90.87 10.29Q90.87 11.40 94.75 11.40L94.75 11.40Q95.70 11.40 96.16 11.19L96.16 11.19Q97.38 10.61 99.15 10.61Q100.92 10.61 100.92 11.52L100.92 11.52Q100.92 11.88 100.62 12.57Q100.32 13.26 100.17 13.41Q100.03 13.57 99.07 13.83Q98.11 14.10 97.83 14.12Q97.55 14.15 97.45 14.17Q97.36 14.18 97.23 14.20Q97.10 14.22 96.66 14.29Q96.22 14.37 96.01 14.29L96.01 14.29Q90.35 17.07 88.23 20.40L88.23 20.40Q87.28 21.91 87.28 22.98L87.28 22.98Q87.28 24.68 89.62 24.68L89.62 24.68Q91.45 24.68 94.27 23.24Q97.09 21.80 99.27 19.76Q101.45 17.72 101.45 16.22L101.45 16.22Q101.45 15.74 102.16 15.74L102.16 15.74Q103.82 15.74 103.82 17.70L103.82 17.70Q103.82 18.63 103.02 19.90Q102.21 21.17 100.78 22.48Q99.34 23.79 97.58 24.92Q95.82 26.04 93.68 26.76Q91.53 27.48 90.05 27.48Q88.56 27.48 87.65 27.20Q86.73 26.91 85.93 26.35L85.93 26.35Q84.18 25.14 84.18 22.68L84.18 22.68Q84.18 21.34 84.90 19.97Q85.62 18.59 86.78 17.46L86.78 17.46Q88.92 15.34 91.36 13.94L91.36 13.94Q87.84 13.14 87.84 10.32L87.84 10.32Q87.84 7.14 92.73 4.51L92.73 4.51Q95.45 3.06 98.63 2.42L98.63 2.42Q100.13 2.12 101.14 2.12L101.14 2.12Q103.19 2.12 104.23 2.44L104.23 2.44Q104.86 2.75 105.26 3.30Q105.65 3.86 105.65 4.26Q105.65 4.66 105.55 4.99Q105.44 5.31 105.21 5.50L105.21 5.50Q104.86 5.76 104.44 5.89Q104.01 6.03 103.94 6.06L103.94 6.06Q102.61 6.63 101.65 6.63L101.65 6.63Q99.94 6.63 99.79 6.18L99.79 6.18Q99.82 5.74 100.16 5.16L100.16 5.16Q98.54 5.23 96.80 5.82Q95.05 6.41 93.78 7.20Q92.51 8.00 91.69 8.85Q90.87 9.71 90.87 10.29ZM111.17 21.57L111.17 21.57L111.08 21.92Q111.08 22.03 111.18 22.11Q111.27 22.20 111.41 22.20Q111.55 22.20 111.63 22.06L111.63 22.06Q114.18 18.68 115.85 16.11Q117.53 13.53 118.30 12.32Q119.08 11.11 119.54 10.39L119.54 10.39Q120.77 8.51 121.99 7.02L121.99 7.02Q117.37 8.18 114.76 8.18Q112.14 8.18 111.00 7.85Q109.85 7.52 109.49 7.10Q109.14 6.68 109.14 6.24Q109.14 5.81 109.17 5.40L109.17 5.40Q109.24 4.54 110.20 4.00Q111.17 3.45 111.80 3.45Q112.43 3.45 112.43 3.64Q112.43 3.83 112.15 4.14Q111.87 4.46 111.87 4.58L111.87 4.58Q111.87 5.13 115.82 5.13Q119.77 5.13 124.89 4.08L124.89 4.08Q127.83 1.69 129.97 1.69L129.97 1.69Q131.39 1.69 131.85 2.49L131.85 2.49Q132.16 2.97 132.16 3.45Q132.16 3.93 131.60 4.41Q131.04 4.89 130.10 5.23L130.10 5.23Q128.40 5.84 126.07 6.20L126.07 6.20Q125.10 7.45 123.31 10.08Q121.53 12.71 120.88 13.64Q120.23 14.56 118.78 16.92Q117.34 19.28 116.28 20.99Q115.22 22.71 114.02 24.39L114.02 24.39Q111.58 27.84 109.67 27.84L109.67 27.84Q108.86 27.84 108.28 27.41Q107.70 26.98 107.70 26.02Q107.70 25.05 108.77 23.61Q109.84 22.16 110.33 21.75Q110.83 21.34 111.00 21.34Q111.17 21.34 111.17 21.57ZM145.78 3.02L145.78 3.02Q146.31 1.84 146.53 1.84L146.53 1.84L146.61 1.84Q146.87 1.84 147.66 2.39Q148.44 2.94 148.44 3.42L148.44 3.42Q148.44 4.08 144.07 13.74Q139.69 23.39 139.05 24.56Q138.41 25.74 138.17 26.13Q137.93 26.52 137.52 27L137.52 27Q136.79 27.91 135.69 27.91L135.69 27.91Q135.25 27.91 134.91 28.02Q134.57 28.13 134.50 28.13L134.50 28.13Q133.95 28.13 133.95 27.87L133.95 27.87Q133.95 27.82 134.10 27.45Q134.24 27.09 138.00 19.16L138.00 19.16Q133.98 19.00 130.94 18.92L130.94 18.92Q128.02 22.59 125.64 26.61L125.64 26.61Q125.35 27.17 125.10 27.40Q124.84 27.63 124.40 27.63Q123.95 27.63 123.44 27.18Q122.93 26.73 122.93 26.13L122.93 26.13Q122.93 24.42 127.34 18.81L127.34 18.81Q125.27 18.81 124.71 18.92Q124.16 19.02 124.00 19.02L124.00 19.02Q123.54 19.02 123.54 18.24Q123.54 17.46 124.46 16.87Q125.37 16.28 126.91 16.28L126.91 16.28Q127.03 16.28 127.34 16.27L127.34 16.27Q128.40 16.22 129.51 16.18L129.51 16.18Q133.23 11.81 137.30 8.06Q141.37 4.32 144.34 2.82L144.34 2.82Q144.82 2.58 145.10 2.59Q145.38 2.60 145.78 3.02ZM144.58 5.43L144.58 5.43Q138.34 10.17 133.18 16.18L133.18 16.18Q136.21 16.25 139.30 16.44L139.30 16.44Q142.41 9.89 144.58 5.43Z"></path></g>
        
      </svg>